<?xml version="1.0" encoding="iso-8859-1"?>
<!-- Generator: Adobe Illustrator 16.0.0, SVG Export Plug-In . SVG Version: 6.00 Build 0)  -->
<!DOCTYPE svg PUBLIC "-//W3C//DTD SVG 1.1//EN" "http://www.w3.org/Graphics/SVG/1.1/DTD/svg11.dtd">
<svg version="1.1" id="Capa_1" xmlns="http://www.w3.org/2000/svg" xmlns:xlink="http://www.w3.org/1999/xlink" x="0px" y="0px"
	 width="317.769px" height="317.769px" viewBox="0 0 317.769 317.769" style="enable-background:new 0 0 317.769 317.769;"
	 xml:space="preserve">
<g>
	<g>
		<path d="M45.479,89.304c2.126,0.465,4.1,0.435,10.162-4.227c2.698-2.068,6.68-5.554,10.355-10.418l1.609-2.134
			c13.772-18.317,46.014-61.202,92.583-58.876c38.409,2.804,65.633,31.805,78.732,83.878c0.445,1.77,0.708,2.856,1.013,3.691
			c1.995,8.515,5.355,19.126,10.194,22.617c1.201,0.868,2.588,1.282,3.967,1.282c2.102,0,4.172-0.977,5.499-2.813
			c2.118-2.93,1.547-6.985-1.225-9.231c-1.342-1.73-3.856-8.981-5.353-15.461c-0.086-0.385-0.212-0.76-0.362-1.121
			c-0.13-0.441-0.37-1.405-0.589-2.271c-2.077-8.252-7.591-30.178-20.964-50.799C213.832,16.795,190.273,2.229,161.09,0.122
			c-0.043-0.003-0.089-0.003-0.144-0.007C107.155-2.629,71.838,44.33,56.767,64.38l-1.588,2.106
			c-4.129,5.457-8.999,8.852-10.684,9.837c-0.568,0.221-1.116,0.525-1.631,0.914c-2.11,1.602-3.136,4.326-2.565,6.908
			C40.874,86.72,42.894,88.739,45.479,89.304z"/>
		<path d="M215.3,115.309c5.12-12.784,5.243-25.991,0.336-36.234c-4.367-9.137-12.519-15.759-23.565-19.142
			c-16.214-4.962-35.869,4.045-53.878,24.674c-0.224,0.253-25.858,27.215-52.778,43.696c-0.2,0.118-19.905,11.941-40.484,17.545
			c-3.607,0.985-5.744,4.71-4.757,8.323c0.989,3.616,4.71,5.748,8.323,4.758c22.389-6.093,43.058-18.495,43.962-19.042
			c29.205-17.874,55.686-46.056,55.91-46.315c10.93-12.525,27.109-24.534,39.733-20.668c7.423,2.274,12.573,6.323,15.301,12.031
			c3.274,6.829,3.019,16.063-0.694,25.339c-6.91,17.261-28.418,38.109-60.566,58.697c-16.127,10.331-56.728,35.679-85.396,47.934
			c-3.441,1.476-5.042,5.459-3.575,8.901c1.101,2.573,3.607,4.117,6.242,4.117c0.883,0,1.793-0.179,2.663-0.548
			c29.602-12.658,70.969-38.476,87.376-48.984C173.864,164.753,205.109,140.77,215.3,115.309z"/>
		<path d="M106.099,64.685c-3.073,3.393-5.838,7.031-8.816,10.506c-3.894,4.557-8.151,8.81-12.595,12.823
			c-4.574,4.127-8.266,7.082-13.666,10.176c-5.715,3.284-11.546,6.603-17.472,9.486c-2.033,0.996-3.785,1.641-6.078,2.331
			c-3.539,1.063-5.735,4.714-4.738,8.34c0.965,3.498,4.805,5.801,8.345,4.738c6.935-2.084,13.215-5.652,19.472-9.209
			c5.286-3.006,10.542-5.711,15.401-9.409c9.466-7.2,17.617-15.61,25.112-24.809c3.032-3.727,6.283-7.275,9.673-10.683
			c1.846-1.86,3.763-3.655,5.715-5.407c1.02-0.911,2.053-1.802,3.103-2.681c0.525-0.445,1.067-0.883,1.602-1.321
			c0.135-0.114,1.19-0.942,1.464-1.16c4.716-3.619,9.745-6.832,15.044-9.551c4.997-2.57,10.011-4.37,16.098-5.637
			c2.019-0.419,2.457-0.465,3.97-0.619c3.675-0.382,6.786-2.796,6.786-6.781c0-3.41-3.098-7.163-6.786-6.781
			C143.217,31.57,122.251,46.891,106.099,64.685z"/>
		<path d="M53.329,194.52c14.728-5.055,90.364-33.298,132.715-92.664c2.17-3.049,1.468-7.282-1.577-9.455
			c-3.053-2.177-7.289-1.468-9.459,1.581c-39.949,55.995-112.035,82.89-126.081,87.712c-0.301,0.103-0.486,0.167-0.553,0.198
			c-3.498,1.324-5.263,5.239-3.936,8.743c1.026,2.711,3.599,4.381,6.339,4.381c0.773,0,1.552-0.134,2.312-0.411L53.329,194.52z"/>
		<path d="M141.73,223.132c1.567-7.275,4.175-14.164,7.667-20.509c-8.15,4.558-18.619,11.365-31.791,20.047
			c-16.933,11.159-36.119,23.808-44.466,26.053c-3.614,0.976-5.758,4.698-4.784,8.312c0.814,3.028,3.554,5.023,6.543,5.023
			c0.582,0,1.177-0.075,1.766-0.235c10.458-2.816,28.89-14.966,48.405-27.826C130.401,230.473,136.173,226.671,141.73,223.132z"/>
		<path d="M140.576,248.405c-9.214,5.887-21.142,14.359-36.172,25.335c-3.612,2.638-6.742,4.917-8.904,6.454
			c-3.06,2.159-3.785,6.393-1.629,9.448c1.321,1.868,3.417,2.868,5.543,2.868c1.355,0,2.716-0.4,3.907-1.243
			c2.253-1.591,5.416-3.9,9.084-6.573c6.771-4.941,19.97-14.579,31.271-22.107C142.205,258.028,141.164,253.285,140.576,248.405z"/>
		<path d="M153.285,282.168c-11.84,4.034-28.314,20.591-31.718,24.105c-2.6,2.689-2.533,6.981,0.157,9.585
			c1.314,1.277,3.018,1.91,4.717,1.91c1.773,0,3.547-0.688,4.875-2.063c9.083-9.381,21.982-20.037,26.986-20.903
			c2.292-0.393,5.148,0.575,8.393,2.304C161.602,292.736,157.084,287.719,153.285,282.168z"/>
		<path d="M257.625,161.845c-5.653-2.386-11.56-4.896-16.316-8.855c-5.236-4.356-7.673-10.079-8.761-16.685
			c-1.424-8.613-14.489-4.946-13.079,3.607c1.926,11.661,8.274,19.763,16.84,25.814c6.971,1.906,13.565,4.773,19.603,8.47
			c1.643-0.346,3.121-1.314,4.147-3.066C261.746,168.251,261.034,163.289,257.625,161.845z"/>
		<path d="M198.531,160.678c-2.457,0.678-4.702,3.148-5.041,5.8c4.025-1.256,8.196-2.176,12.475-2.754
			C204.355,161.281,201.728,159.798,198.531,160.678z"/>
		<path d="M212.131,169.805c-36.227,0-65.704,29.475-65.704,65.705s29.477,65.706,65.704,65.706
			c36.234,0,65.706-29.476,65.706-65.706S248.361,169.805,212.131,169.805z M212.131,287.199c-28.499,0-51.687-23.188-51.687-51.688
			s23.188-51.688,51.687-51.688c28.5,0,51.688,23.188,51.688,51.688S240.627,287.199,212.131,287.199z"/>
		<polygon points="229.495,207.822 212.774,225.555 196.061,207.822 185.096,216.103 203.388,235.51 185.096,254.914 
			196.061,263.199 212.774,245.465 229.495,263.199 240.46,254.914 222.165,235.51 240.46,216.103 		"/>
	</g>
</g>
<g>
</g>
<g>
</g>
<g>
</g>
<g>
</g>
<g>
</g>
<g>
</g>
<g>
</g>
<g>
</g>
<g>
</g>
<g>
</g>
<g>
</g>
<g>
</g>
<g>
</g>
<g>
</g>
<g>
</g>
</svg>
