<?xml version="1.0" encoding="iso-8859-1"?>
<!-- Generator: Adobe Illustrator 16.0.0, SVG Export Plug-In . SVG Version: 6.00 Build 0)  -->
<!DOCTYPE svg PUBLIC "-//W3C//DTD SVG 1.1//EN" "http://www.w3.org/Graphics/SVG/1.1/DTD/svg11.dtd">
<svg version="1.1" id="Capa_1" xmlns="http://www.w3.org/2000/svg" xmlns:xlink="http://www.w3.org/1999/xlink" x="0px" y="0px"
	 width="317.765px" height="317.765px" viewBox="0 0 317.765 317.765" style="enable-background:new 0 0 317.765 317.765;"
	 xml:space="preserve">
<g>
	<g>
		<path d="M45.472,89.304c2.127,0.465,4.1,0.435,10.171-4.227c2.689-2.067,6.671-5.554,10.354-10.418l1.608-2.134
			c13.772-18.317,46.016-61.202,92.584-58.875c38.405,2.803,65.626,31.804,78.726,83.879c0.445,1.77,0.719,2.856,1.013,3.689
			c2.002,8.516,5.355,19.126,10.194,22.617c1.201,0.869,2.588,1.283,3.967,1.283c2.102,0,4.172-0.979,5.499-2.814
			c2.118-2.93,1.554-6.985-1.225-9.23c-1.335-1.731-3.856-8.981-5.353-15.461c-0.086-0.385-0.212-0.762-0.362-1.121
			c-0.124-0.443-0.37-1.406-0.589-2.272c-2.077-8.252-7.591-30.178-20.964-50.799C213.827,16.796,190.279,2.229,161.09,0.124
			c-0.05-0.005-0.094-0.005-0.144-0.009C107.148-2.627,71.838,44.33,56.764,64.382l-1.588,2.104
			c-4.127,5.457-8.999,8.853-10.677,9.837c-0.575,0.221-1.121,0.525-1.629,0.916c-2.11,1.602-3.14,4.324-2.573,6.906
			C40.868,86.718,42.894,88.736,45.472,89.304z"/>
		<path d="M215.295,115.305c5.12-12.783,5.243-25.991,0.343-36.234c-4.374-9.135-12.525-15.759-23.572-19.14
			c-16.214-4.962-35.871,4.043-53.873,24.674c-0.231,0.251-25.865,27.213-52.785,43.694c-0.2,0.12-19.903,11.943-40.478,17.547
			c-3.614,0.984-5.751,4.709-4.762,8.323c0.987,3.614,4.709,5.746,8.323,4.76c22.388-6.097,43.062-18.499,43.968-19.044
			c29.198-17.879,55.678-46.061,55.904-46.321c10.935-12.523,27.109-24.533,39.733-20.668c7.423,2.274,12.58,6.322,15.308,12.031
			c3.268,6.831,3.012,16.063-0.695,25.339c-6.916,17.263-28.424,38.109-60.573,58.697c-16.124,10.335-56.724,35.683-85.395,47.94
			c-3.443,1.472-5.039,5.455-3.568,8.901c1.097,2.57,3.599,4.113,6.233,4.113c0.89,0,1.795-0.175,2.665-0.548
			c29.607-12.658,70.969-38.472,87.375-48.98C173.866,164.75,205.104,140.768,215.295,115.305z"/>
		<path d="M106.094,64.687c-3.075,3.391-5.838,7.029-8.811,10.506c-3.893,4.555-8.158,8.809-12.602,12.821
			c-4.572,4.128-8.266,7.082-13.66,10.177c-5.722,3.284-11.546,6.602-17.472,9.486c-2.04,0.994-3.792,1.639-6.083,2.331
			c-3.54,1.061-5.73,4.712-4.738,8.34c0.963,3.498,4.803,5.799,8.343,4.738c6.935-2.086,13.214-5.653,19.474-9.209
			c5.291-3.008,10.54-5.713,15.401-9.409c9.464-7.202,17.616-15.612,25.112-24.811c3.037-3.725,6.283-7.275,9.671-10.681
			c1.854-1.862,3.765-3.657,5.722-5.409c1.013-0.911,2.046-1.8,3.095-2.68c0.525-0.445,1.068-0.883,1.602-1.321
			c0.144-0.116,1.191-0.943,1.465-1.16c4.724-3.621,9.751-6.834,15.044-9.553c4.996-2.568,10.018-4.37,16.106-5.635
			c2.012-0.421,2.457-0.467,3.963-0.621c3.675-0.382,6.786-2.796,6.786-6.781c0-3.408-3.098-7.163-6.786-6.779
			C143.211,31.567,122.255,46.888,106.094,64.687z"/>
		<path d="M53.326,194.516c14.736-5.055,90.365-33.298,132.72-92.663c2.173-3.049,1.465-7.283-1.581-9.456
			c-3.046-2.175-7.282-1.468-9.459,1.581c-39.95,55.995-112.036,82.89-126.083,87.711c-0.301,0.103-0.486,0.171-0.546,0.198
			c-3.504,1.324-5.27,5.239-3.942,8.744c1.026,2.71,3.605,4.38,6.346,4.38c0.767,0,1.545-0.133,2.313-0.41L53.326,194.516z"/>
		<path d="M141.726,223.128c1.572-7.275,4.173-14.164,7.667-20.509c-8.152,4.559-18.619,11.365-31.792,20.048
			c-16.926,11.162-36.119,23.808-44.462,26.056c-3.619,0.972-5.765,4.695-4.789,8.31c0.819,3.028,3.552,5.023,6.541,5.023
			c0.589,0,1.177-0.075,1.766-0.236c10.465-2.816,28.896-14.965,48.408-27.825C130.398,230.476,136.175,226.674,141.726,223.128z"/>
		<path d="M140.569,248.402c-9.212,5.886-21.135,14.359-36.166,25.334c-3.619,2.639-6.741,4.921-8.911,6.454
			c-3.06,2.159-3.783,6.393-1.629,9.448c1.328,1.872,3.424,2.868,5.544,2.868c1.357,0,2.722-0.4,3.906-1.242
			c2.253-1.591,5.422-3.901,9.084-6.574c6.771-4.941,19.97-14.578,31.272-22.106C142.198,258.025,141.158,253.282,140.569,248.402z"
			/>
		<path d="M153.279,282.168c-11.834,4.031-28.315,20.591-31.709,24.102c-2.608,2.69-2.541,6.981,0.15,9.586
			c1.321,1.276,3.017,1.909,4.716,1.909c1.772,0,3.547-0.688,4.875-2.063c9.083-9.38,21.982-20.036,26.988-20.902
			c2.298-0.394,5.155,0.575,8.396,2.303C161.595,292.732,157.077,287.719,153.279,282.168z"/>
		<path d="M257.62,161.848c-5.653-2.389-11.56-4.897-16.316-8.858c-5.236-4.355-7.669-10.079-8.761-16.683
			c-1.424-8.614-14.489-4.948-13.079,3.605c1.926,11.663,8.274,19.763,16.84,25.814c6.981,1.906,13.565,4.773,19.603,8.47
			c1.649-0.346,3.128-1.314,4.157-3.066C261.741,168.248,261.029,163.286,257.62,161.848z"/>
		<path d="M198.533,160.681c-2.464,0.675-4.702,3.146-5.04,5.797c4.021-1.256,8.199-2.176,12.477-2.754
			C204.358,161.277,201.723,159.802,198.533,160.681z"/>
		<path d="M212.133,169.801c-36.233,0-65.705,29.476-65.705,65.706s29.472,65.705,65.705,65.705
			c36.228,0,65.706-29.475,65.706-65.705S248.36,169.801,212.133,169.801z M212.133,287.195c-28.499,0-51.688-23.188-51.688-51.688
			c0-28.5,23.189-51.688,51.688-51.688c28.5,0,51.688,23.188,51.688,51.688C263.821,264.006,240.633,287.195,212.133,287.195z"/>
		<polygon points="204.228,247.717 186.491,231.414 177.005,241.739 205.515,267.928 247.874,217.711 237.166,208.67 		"/>
	</g>
</g>
<g>
</g>
<g>
</g>
<g>
</g>
<g>
</g>
<g>
</g>
<g>
</g>
<g>
</g>
<g>
</g>
<g>
</g>
<g>
</g>
<g>
</g>
<g>
</g>
<g>
</g>
<g>
</g>
<g>
</g>
</svg>
