<?xml version="1.0" encoding="iso-8859-1"?>
<!-- Generator: Adobe Illustrator 19.0.0, SVG Export Plug-In . SVG Version: 6.00 Build 0)  -->
<svg version="1.1" id="Capa_1" xmlns="http://www.w3.org/2000/svg" xmlns:xlink="http://www.w3.org/1999/xlink" x="0px" y="0px"
	 viewBox="0 0 512 512" style="enable-background:new 0 0 512 512;" xml:space="preserve">
<polygon style="fill:#B15C49;" points="448.8,174.52 433.05,200.06 256.09,92.64 255.85,92.49 78.6,200.16 63.2,174.41 
	256.09,57.39 "/>
<polygon style="fill:#8E4231;" points="448.8,174.52 433.05,200.06 256.09,92.64 256.09,57.39 "/>
<rect y="172.29" style="fill:#F9AE8B;" width="512" height="282.32"/>
<rect x="256.05" y="172.29" style="fill:#F1966C;" width="255.91" height="282.32"/>
<g>
	<path style="fill:#FF4314;" d="M142.92,337.05v-15.14h34.88v-21.36h-34.88v-13.52h40.82v-22.98h-67.19v95.98h68.41v-22.98H142.92z"
		/>
	<path style="fill:#FF4314;" d="M247.28,312.72l8.77-13.32l23.27-35.35h-28.39l-17.44,30.28l-17.44-30.28h-28.52l32.04,48.67
		l-30.96,47.31h28.52l16.36-28.93l16.36,28.93h28.39l-22.19-33.91L247.28,312.72z"/>
	<path style="fill:#FF4314;" d="M286.08,264.05v95.98h26.36v-95.98H286.08z"/>
	<path style="fill:#FF4314;" d="M322.04,264.05v22.98h27.71v73h26.36v-73h27.58v-22.98H322.04z"/>
</g>
<g>
	<polygon style="fill:#FF0002;" points="256.05,326.12 278.24,360.03 256.05,360.03 	"/>
	<polygon style="fill:#FF0002;" points="256.05,264.05 279.32,264.05 256.05,299.4 	"/>
	<rect x="286.08" y="264.05" style="fill:#FF0002;" width="26.36" height="95.98"/>
	<polygon style="fill:#FF0002;" points="403.69,264.05 403.69,287.03 376.11,287.03 376.11,360.03 349.75,360.03 349.75,287.03 
		322.04,287.03 322.04,264.05 	"/>
</g>
<g>
</g>
<g>
</g>
<g>
</g>
<g>
</g>
<g>
</g>
<g>
</g>
<g>
</g>
<g>
</g>
<g>
</g>
<g>
</g>
<g>
</g>
<g>
</g>
<g>
</g>
<g>
</g>
<g>
</g>
</svg>
