<?xml version="1.0" encoding="iso-8859-1"?>
<!-- Generator: Adobe Illustrator 16.0.0, SVG Export Plug-In . SVG Version: 6.00 Build 0)  -->
<!DOCTYPE svg PUBLIC "-//W3C//DTD SVG 1.1//EN" "http://www.w3.org/Graphics/SVG/1.1/DTD/svg11.dtd">
<svg version="1.1" id="Capa_1" xmlns="http://www.w3.org/2000/svg" xmlns:xlink="http://www.w3.org/1999/xlink" x="0px" y="0px"
	 width="311.318px" height="311.318px" viewBox="0 0 311.318 311.318" style="enable-background:new 0 0 311.318 311.318;"
	 xml:space="preserve">
<g>
	<g>
		<path d="M52.838,87.495c2.087,0.453,4.018,0.417,9.965-4.141c2.635-2.026,6.536-5.443,10.14-10.211l1.578-2.089
			c13.49-17.944,45.077-59.961,90.701-57.677c37.623,2.745,64.299,31.157,77.125,82.166c0.435,1.737,0.701,2.8,0.996,3.619
			c1.961,8.336,5.249,18.734,9.989,22.155c1.174,0.847,2.535,1.25,3.884,1.25c2.054,0,4.093-0.95,5.387-2.751
			c2.073-2.873,1.522-6.843-1.198-9.041c-1.311-1.696-3.777-8.802-5.242-15.145c-0.089-0.375-0.205-0.746-0.359-1.1
			c-0.12-0.431-0.363-1.377-0.575-2.226c-2.032-8.09-7.437-29.569-20.536-49.763C217.772,16.449,194.7,2.177,166.104,0.12
			c-0.045-0.007-0.086-0.007-0.137-0.007c-52.702-2.691-87.293,43.31-102.063,62.954l-1.55,2.067
			c-4.045,5.344-8.826,8.673-10.472,9.63c-0.554,0.224-1.092,0.519-1.591,0.896c-2.067,1.567-3.077,4.236-2.522,6.771
			C48.327,84.962,50.305,86.942,52.838,87.495z"/>
		<path d="M132.427,175.034c-19.191,11.854-47.226,28.349-68.553,37.466c-3.374,1.44-4.941,5.335-3.497,8.716
			c1.078,2.522,3.531,4.031,6.108,4.031c0.873,0,1.759-0.171,2.611-0.533c19.554-8.364,44.32-22.569,63.327-34.103v-15.577H132.427z
			"/>
		<path d="M55.794,155.702c21.926-5.963,42.185-18.112,43.068-18.646c4.237-2.593,8.398-5.428,12.45-8.344
			c-0.007-0.244-0.051-0.494-0.051-0.739c0-7.002,1.67-13.6,4.562-19.495c-7.337,6.002-15.533,12.122-23.866,17.221
			c-0.195,0.114-19.496,11.697-39.656,17.184c-3.539,0.963-5.626,4.618-4.661,8.152C48.604,154.583,52.256,156.671,55.794,155.702z"
			/>
		<path d="M219.206,112.968c5.01-12.523,5.137-25.461,0.328-35.495c-4.277-8.961-12.265-15.439-23.085-18.755
			c-15.887-4.859-35.14,3.965-52.784,24.174c-0.051,0.055-1.28,1.341-3.354,3.416c4.815-1.787,9.996-2.813,15.42-2.813
			c1.886,0,3.734,0.157,5.562,0.381c9.812-8.854,21.594-15.412,31.258-12.458c7.279,2.226,12.33,6.196,15.003,11.786
			c3.199,6.685,2.95,15.733-0.685,24.824c-1.622,4.057-4.083,8.316-7.303,12.724c0.387,2.354,0.644,4.749,0.644,7.216
			c0,5.4-1.058,10.657-2.916,15.576C206.931,133.963,214.949,123.597,219.206,112.968z"/>
		<path d="M135.199,59.644c0.513-0.431,1.044-0.862,1.567-1.293c0.137-0.115,1.17-0.924,1.431-1.134
			c4.626-3.547,9.558-6.694,14.743-9.356c4.896-2.521,9.812-4.279,15.772-5.523c1.979-0.411,2.409-0.458,3.888-0.609
			c3.597-0.37,6.643-2.738,6.643-6.641c0-3.347-3.032-7.024-6.643-6.644c-24.017,2.491-44.546,17.499-60.377,34.933
			c-3.012,3.32-5.719,6.885-8.634,10.295c-3.816,4.461-7.987,8.624-12.337,12.56c-4.483,4.045-8.107,6.935-13.387,9.974
			c-5.603,3.21-11.317,6.461-17.118,9.286c-1.998,0.977-3.72,1.608-5.961,2.284c-3.463,1.041-5.616,4.613-4.634,8.172
			c0.941,3.424,4.702,5.681,8.168,4.641c6.793-2.046,12.95-5.544,19.079-9.028c5.181-2.943,10.318-5.592,15.082-9.219
			c9.281-7.051,17.261-15.291,24.605-24.306c2.977-3.648,6.156-7.125,9.476-10.463c1.813-1.822,3.689-3.578,5.602-5.299
			C133.163,61.379,134.176,60.51,135.199,59.644z"/>
		<path d="M60.527,190.57c8.076-2.771,34.807-12.645,64.056-30.991c-3.172-3.138-5.862-6.721-7.967-10.643
			c-27.583,17.148-52.763,26.446-60.398,29.074c-0.298,0.096-0.482,0.158-0.541,0.188c-3.429,1.301-5.161,5.134-3.86,8.565
			c1.003,2.659,3.532,4.288,6.211,4.288c0.753,0,1.522-0.123,2.265-0.396L60.527,190.57z"/>
		<path d="M190.33,100.083c0.071-0.094,0.144-0.193,0.223-0.294c2.125-2.986,1.434-7.132-1.551-9.262
			c-2.628-1.875-6.156-1.559-8.411,0.575C184.27,93.593,187.544,96.632,190.33,100.083z"/>
		<path d="M132.427,228.18v-15.886c-2.837,1.849-5.787,3.785-8.932,5.853c-16.581,10.937-35.385,23.325-43.557,25.529
			c-3.545,0.958-5.643,4.603-4.692,8.138c0.801,2.971,3.48,4.921,6.41,4.921c0.571,0,1.157-0.075,1.731-0.226
			c10.246-2.766,28.305-14.668,47.424-27.268C131.339,228.892,131.886,228.536,132.427,228.18z"/>
		<path d="M241.286,230.117c-9.206-3.073-20.476-11.095-31.368-18.85c-11.478-8.186-21.812-15.529-30.871-18.195v14.13
			c6.649,3.131,15.547,9.459,23.165,14.88c11.689,8.329,23.773,16.933,34.868,20.639c3.483,1.153,7.241-0.726,8.404-4.202
			C246.645,235.038,244.763,231.273,241.286,230.117z"/>
		<path d="M224.654,262.655c-5.349-1.938-14.059-7.317-22.477-12.512c-17.778-10.985-29.082-17.658-37.189-16.256
			c-8.216,1.417-25.467,13.142-54.419,34.291c-3.545,2.587-6.604,4.818-8.729,6.316c-2.991,2.122-3.707,6.263-1.595,9.264
			c1.297,1.824,3.35,2.807,5.431,2.807c1.331,0,2.666-0.396,3.833-1.222c2.207-1.558,5.308-3.826,8.897-6.44
			c11.522-8.408,42.134-30.762,48.779-31.905c4.141-0.287,19.086,8.933,28.018,14.448c9.407,5.812,18.295,11.301,24.94,13.71
			c3.446,1.242,7.259-0.541,8.508-4.001C229.89,267.709,228.107,263.911,224.654,262.655z"/>
		<path d="M202.222,295.679c-3.733-2.434-7.159-4.887-10.481-7.245c-10.894-7.785-20.311-14.506-30.632-12.71
			c-11.619,2.002-30.129,20.622-33.722,24.321c-2.553,2.643-2.485,6.845,0.15,9.401c1.29,1.242,2.957,1.872,4.62,1.872
			c1.735,0,3.47-0.675,4.767-2.022c8.897-9.192,21.539-19.634,26.446-20.482c4.849-0.831,12.18,4.381,20.656,10.435
			c3.269,2.327,6.971,4.969,10.934,7.56c3.073,2.005,7.193,1.136,9.195-1.938C206.157,301.798,205.291,297.69,202.222,295.679z"/>
		<path d="M260.669,158.56c-5.537-2.334-11.324-4.798-15.988-8.673c-5.13-4.271-7.519-9.875-8.583-16.344
			c-1.389-8.438-14.191-4.853-12.809,3.526c2.84,17.234,15.526,26.562,30.68,32.962c3.333,1.414,7.084,1.048,9.082-2.385
			C264.711,164.829,264.009,159.97,260.669,158.56z"/>
		<path d="M247.784,193.223c-4.989-1.536-8.774-3.477-14.058-6.602c-9.668-5.715-18.48-13.986-22.774-24.564
			c-1.358-3.354-4.367-5.688-8.173-4.64c-3.179,0.876-5.999,4.812-4.637,8.179c7.919,19.513,26.087,34.27,46.11,40.437
			C252.463,208.567,255.943,195.738,247.784,193.223z"/>
		<path d="M172.154,224.354v-62.119c12.519-6.061,21.163-18.899,21.163-33.743c0-20.688-16.775-37.464-37.466-37.464
			c-20.694,0-37.466,16.775-37.466,37.464c0,14.844,8.641,27.679,21.163,33.743v62.122h32.606V224.354z"/>
	</g>
</g>
<g>
</g>
<g>
</g>
<g>
</g>
<g>
</g>
<g>
</g>
<g>
</g>
<g>
</g>
<g>
</g>
<g>
</g>
<g>
</g>
<g>
</g>
<g>
</g>
<g>
</g>
<g>
</g>
<g>
</g>
</svg>
