<?xml version="1.0" encoding="iso-8859-1"?>
<!-- Generator: Adobe Illustrator 16.0.0, SVG Export Plug-In . SVG Version: 6.00 Build 0)  -->
<!DOCTYPE svg PUBLIC "-//W3C//DTD SVG 1.1//EN" "http://www.w3.org/Graphics/SVG/1.1/DTD/svg11.dtd">
<svg version="1.1" id="Capa_1" xmlns="http://www.w3.org/2000/svg" xmlns:xlink="http://www.w3.org/1999/xlink" x="0px" y="0px"
	 width="311.327px" height="311.327px" viewBox="0 0 311.327 311.327" style="enable-background:new 0 0 311.327 311.327;"
	 xml:space="preserve">
<g>
	<g>
		<path d="M143.53,219.213c0,7.361,5.051,13.035,12.409,13.035c7.778,0,12.617-5.674,12.617-13.035
			c0-7.782-5.044-13.247-12.402-13.247C148.787,205.966,143.53,211.435,143.53,219.213z"/>
		<path d="M194.411,116.827c0-15.983-10.931-30.909-35.115-30.909c-11.142,0-23.126,3.361-30.06,8.41l5.044,13.244
			c5.256-3.999,13.668-6.514,21.231-6.514c13.25,0.207,19.979,7.359,19.979,18.074c0,9.466-5.257,17.665-14.723,28.81
			c-10.513,12.615-14.298,25.018-13.031,36.369l0.417,5.472h16.399l-0.205-5.472c-0.637-10.719,2.73-19.969,11.984-30.899
			C186.424,141.424,194.411,131.116,194.411,116.827z"/>
		<path d="M52.836,87.502c2.087,0.458,4.018,0.424,9.965-4.143c2.635-2.026,6.536-5.441,10.14-10.205l1.581-2.095
			c13.49-17.945,45.073-59.954,90.701-57.677c37.623,2.743,64.295,31.155,77.121,82.171c0.438,1.732,0.705,2.801,1,3.614
			c1.957,8.343,5.249,18.732,9.985,22.153c1.171,0.849,2.536,1.259,3.888,1.259c2.054,0,4.093-0.958,5.387-2.758
			c2.074-2.868,1.52-6.838-1.198-9.042c-1.313-1.696-3.777-8.796-5.242-15.146c-0.089-0.375-0.209-0.739-0.366-1.097
			c-0.116-0.438-0.356-1.384-0.575-2.231c-2.032-8.084-7.433-29.562-20.529-49.765C217.774,16.46,194.702,2.187,166.106,0.126
			c-0.048-0.007-0.089-0.007-0.137-0.014C113.265-2.569,78.667,43.44,63.903,63.084l-1.554,2.062
			c-4.042,5.344-8.822,8.673-10.468,9.637c-0.554,0.221-1.098,0.519-1.595,0.896c-2.067,1.566-3.073,4.237-2.522,6.771
			C48.326,84.972,50.304,86.948,52.836,87.502z"/>
		<path d="M55.793,155.711c21.933-5.964,42.188-18.115,43.071-18.647c8.268-5.056,16.29-10.964,23.555-16.803
			c-1.092-1.244-2.033-2.615-2.635-4.196l-3.142-8.252c-7.539,6.213-16.029,12.609-24.681,17.903
			c-0.192,0.117-19.496,11.692-39.653,17.187c-3.542,0.956-5.626,4.611-4.661,8.151C48.6,154.592,52.254,156.687,55.793,155.711z"/>
		<path d="M219.212,112.979c5.01-12.525,5.133-25.462,0.328-35.494c-4.277-8.954-12.266-15.434-23.086-18.755
			c-13.887-4.25-30.354,1.966-46.066,17.104c2.499-0.258,5.013-0.431,7.519-0.431c4.599,0,8.829,0.467,12.758,1.266
			c7.405-4.731,15.167-7.296,21.895-5.236c7.275,2.233,12.33,6.196,15.003,11.784c3.196,6.687,2.95,15.742-0.685,24.831
			c-0.294,0.732-0.65,1.487-0.999,2.24c0.739,3.327,1.156,6.701,1.156,10.041c0,5.621-0.938,10.744-2.464,15.488
			C210.913,128.488,216.073,120.8,219.212,112.979z"/>
		<path d="M132.381,189.108c-0.51-4.768-0.267-9.572,0.541-14.373c-19.202,11.875-47.534,28.578-69.046,37.771
			c-3.374,1.443-4.941,5.345-3.497,8.72c1.074,2.525,3.531,4.031,6.105,4.031c0.876,0,1.759-0.172,2.614-0.527
			c19.575-8.378,44.375-22.613,63.392-34.153L132.381,189.108z"/>
		<path d="M136.768,58.361c0.137-0.11,1.17-0.926,1.431-1.136c4.623-3.539,9.555-6.692,14.743-9.356
			c4.89-2.519,9.808-4.278,15.77-5.523c1.975-0.409,2.409-0.452,3.884-0.603c3.6-0.375,6.646-2.743,6.646-6.644
			c0-3.338-3.032-7.016-6.646-6.641c-24.01,2.485-44.543,17.501-60.374,34.929c-3.012,3.324-5.715,6.892-8.631,10.295
			c-3.819,4.461-7.987,8.631-12.34,12.559c-4.479,4.043-8.104,6.938-13.384,9.973c-5.609,3.21-11.317,6.469-17.121,9.294
			c-1.995,0.97-3.717,1.608-5.958,2.277c-3.463,1.041-5.616,4.618-4.634,8.172c0.938,3.431,4.702,5.681,8.165,4.639
			c6.793-2.047,12.946-5.537,19.079-9.02c5.185-2.951,10.321-5.6,15.082-9.221c9.277-7.057,17.261-15.289,24.602-24.304
			c2.98-3.648,6.153-7.132,9.479-10.465c1.807-1.822,3.682-3.578,5.599-5.304c0.999-0.892,2.012-1.759,3.032-2.622
			C135.714,59.224,136.241,58.792,136.768,58.361z"/>
		<path d="M60.529,190.58c10.205-3.498,50.237-18.377,87.484-47.35c0.212-0.251,0.376-0.508,0.588-0.76
			c8.384-9.875,11.471-15.223,11.471-19.834c0-2.018-0.045-3.448-3.785-3.9c-39.074,36.903-88.764,55.396-100.071,59.284
			c-0.301,0.103-0.479,0.164-0.537,0.188c-3.433,1.304-5.164,5.14-3.864,8.565c1.006,2.655,3.532,4.288,6.215,4.288
			c0.753,0,1.52-0.123,2.262-0.391L60.529,190.58z"/>
		<path d="M128.117,222.717c0-2.949,0.417-5.756,1.19-8.377c-1.896,1.242-3.785,2.478-5.811,3.819
			c-16.581,10.93-35.385,23.325-43.557,25.522c-3.545,0.954-5.647,4.603-4.695,8.145c0.801,2.971,3.48,4.918,6.413,4.918
			c0.564,0,1.153-0.072,1.728-0.229c9.955-2.687,27.268-13.99,45.771-26.173C128.493,227.936,128.117,225.383,128.117,222.717z"/>
		<path d="M241.288,230.126c-9.206-3.066-20.479-11.088-31.368-18.849c-12.271-8.74-23.229-16.529-32.723-18.672
			c0.014,0.227,0.048,0.445,0.048,0.678c0,3.765-1.484,7.187-3.908,9.705c0.907,0.896,1.712,1.89,2.471,2.923
			c6.773,2.211,17.467,9.814,26.406,16.187c11.689,8.323,23.777,16.933,34.871,20.636c3.484,1.157,7.242-0.726,8.405-4.199
			C246.65,235.047,244.769,231.29,241.288,230.126z"/>
		<path d="M154.54,249.77c-4.784,0-9.226-1.253-13.069-3.443c-8.302,5.523-18.528,12.827-30.899,21.861
			c-3.548,2.584-6.608,4.818-8.733,6.324c-2.994,2.118-3.706,6.263-1.595,9.254c1.301,1.834,3.354,2.816,5.435,2.816
			c1.328,0,2.663-0.397,3.826-1.223c2.21-1.557,5.314-3.825,8.897-6.44c10.602-7.74,37.309-27.227,46.699-31.199
			C161.887,249.044,158.331,249.77,154.54,249.77z"/>
		<path d="M224.656,262.671c-5.353-1.937-14.059-7.316-22.477-12.519c-10.048-6.204-17.974-10.957-24.476-13.729
			c-2.813,5.071-7.187,9.034-12.573,11.279c0.805-0.342,1.53-0.603,2.047-0.694c4.144-0.281,19.089,8.938,28.021,14.448
			c9.407,5.808,18.295,11.307,24.94,13.709c3.45,1.249,7.262-0.54,8.508-3.993C229.896,267.722,228.109,263.913,224.656,262.671z"/>
		<path d="M202.221,295.695c-3.733-2.438-7.159-4.888-10.485-7.256c-10.887-7.781-20.308-14.503-30.625-12.703
			c-11.622,2.006-30.132,20.619-33.722,24.325c-2.557,2.635-2.485,6.845,0.15,9.397c1.287,1.242,2.957,1.868,4.617,1.868
			c1.731,0,3.47-0.674,4.771-2.026c8.897-9.185,21.539-19.629,26.439-20.478c4.853-0.835,12.187,4.387,20.659,10.435
			c3.271,2.333,6.972,4.976,10.938,7.559c3.073,2.006,7.193,1.144,9.192-1.93C206.156,301.813,205.286,297.7,202.221,295.695z"/>
		<path d="M260.675,158.576c-5.537-2.342-11.328-4.797-15.992-8.679c-5.127-4.272-7.516-9.87-8.583-16.344
			c-1.386-8.439-14.188-4.848-12.809,3.532c2.84,17.227,15.529,26.563,30.683,32.956c3.333,1.413,7.077,1.047,9.082-2.386
			C264.709,164.845,264.011,159.985,260.675,158.576z"/>
		<path d="M247.783,193.232c-4.989-1.537-8.774-3.48-14.059-6.605c-9.664-5.715-18.479-13.989-22.771-24.564
			c-1.362-3.347-4.374-5.681-8.173-4.633c-3.183,0.876-6.002,4.805-4.64,8.172c7.922,19.513,26.09,34.27,46.109,40.443
			C252.458,208.57,255.941,195.754,247.783,193.232z"/>
	</g>
</g>
<g>
</g>
<g>
</g>
<g>
</g>
<g>
</g>
<g>
</g>
<g>
</g>
<g>
</g>
<g>
</g>
<g>
</g>
<g>
</g>
<g>
</g>
<g>
</g>
<g>
</g>
<g>
</g>
<g>
</g>
</svg>
