<?xml version="1.0" encoding="iso-8859-1"?>
<!-- Generator: Adobe Illustrator 19.0.0, SVG Export Plug-In . SVG Version: 6.00 Build 0)  -->
<svg version="1.1" id="Layer_1" xmlns="http://www.w3.org/2000/svg" xmlns:xlink="http://www.w3.org/1999/xlink" x="0px" y="0px"
	 viewBox="0 0 512 512" style="enable-background:new 0 0 512 512;" xml:space="preserve">
<circle style="fill:#E16B5A;" cx="256" cy="256" r="256"/>
<path style="fill:#D15C50;" d="M461.492,408.676L389.2,230.312C378.844,203.252,352.704,184,322,184h-12H190
	c-39.764,0-72,32.236-72,72c0,5.724,0.744,11.256,2,16.592c1.064,5.984,2.844,11.716,5.28,17.088l88.404,218.768
	C227.452,510.752,241.58,512,256,512C340.164,512,414.832,471.376,461.492,408.676z"/>
<path style="fill:#E6E6E6;" d="M322,184H190c-39.764,0-72,32.236-72,72s32.236,72,72,72h132c39.764,0,72-32.236,72-72
	S361.764,184,322,184z"/>
<path style="fill:#CCCCCC;" d="M322,184h-12c39.764,0,72,32.236,72,72s-32.236,72-72,72h12c39.764,0,72-32.236,72-72
	S361.764,184,322,184z"/>
<path style="fill:#F5F5F5;" d="M322,204H190c-28.72,0-52,23.28-52,52s23.28,52,52,52h132c28.72,0,52-23.28,52-52S350.72,204,322,204
	z"/>
<circle style="fill:#E16B5A;" cx="190" cy="256" r="44"/>
<path style="fill:#D15C50;" d="M190,212c-1.352,0-2.68,0.084-4,0.204c22.42,2.024,40,20.848,40,43.796s-17.58,41.772-40,43.796
	c1.32,0.116,2.648,0.204,4,0.204c24.3,0,44-19.7,44-44S214.3,212,190,212z"/>
<g>
	<path style="fill:#CCCCCC;" d="M254.852,260.056c0-4.732,1.312-8.408,3.948-11.04c2.628-2.636,6.292-3.948,10.996-3.948
		c4.82,0,8.532,1.288,11.132,3.884c2.604,2.584,3.916,6.208,3.916,10.872c0,3.38-0.572,6.152-1.712,8.32
		c-1.136,2.164-2.78,3.852-4.932,5.056s-4.836,1.804-8.044,1.804c-3.264,0-5.968-0.52-8.1-1.56c-2.14-1.044-3.88-2.684-5.212-4.936
		C255.516,266.252,254.852,263.432,254.852,260.056z M263.796,260.088c0,2.916,0.544,5.024,1.624,6.292
		c1.084,1.276,2.568,1.916,4.428,1.916c1.92,0,3.416-0.624,4.464-1.876c1.052-1.252,1.584-3.496,1.584-6.74
		c0-2.724-0.552-4.716-1.648-5.972c-1.1-1.252-2.588-1.888-4.476-1.888c-1.796,0-3.252,0.64-4.336,1.916
		C264.34,255.032,263.796,257.14,263.796,260.088z"/>
	<path style="fill:#CCCCCC;" d="M289.704,245.56h22.108v6.224h-13.128v5.06H309.9v5.84h-11.216v11.828h-8.98V245.56z"/>
	<path style="fill:#CCCCCC;" d="M316.672,245.56h22.108v6.224h-13.128v5.06h11.216v5.84h-11.216v11.828h-8.98V245.56z"/>
</g>
<g>
</g>
<g>
</g>
<g>
</g>
<g>
</g>
<g>
</g>
<g>
</g>
<g>
</g>
<g>
</g>
<g>
</g>
<g>
</g>
<g>
</g>
<g>
</g>
<g>
</g>
<g>
</g>
<g>
</g>
</svg>
