<?xml version="1.0" encoding="iso-8859-1"?>
<!-- Generator: Adobe Illustrator 19.0.0, SVG Export Plug-In . SVG Version: 6.00 Build 0)  -->
<svg version="1.1" id="Layer_1" xmlns="http://www.w3.org/2000/svg" xmlns:xlink="http://www.w3.org/1999/xlink" x="0px" y="0px"
	 viewBox="0 0 512 512" style="enable-background:new 0 0 512 512;" xml:space="preserve">
<circle style="fill:#88C5CC;" cx="256" cy="256" r="256"/>
<path style="fill:#80B9BF;" d="M477.64,384.044l-78.776-195.3C395.764,179.064,386.672,172,376,172h-8H140c-13.2,0-24,10.8-24,24
	v2.048v2.056V316v2.048v2.056c0,4.64,1.572,8.96,4.14,12.632l67.976,170.096C209.744,508.764,232.488,512,256,512
	C350.72,512,433.364,460.516,477.64,384.044z"/>
<path style="fill:#CCCCCC;" d="M400,316c0,13.2-10.8,24-24,24H140c-13.2,0-24-10.8-24-24V196c0-13.2,10.8-24,24-24h236
	c13.2,0,24,10.8,24,24V316z"/>
<path style="fill:#B3B3B3;" d="M376,172h-8c13.2,0,24,10.8,24,24v120c0,13.2-10.8,24-24,24h8c13.2,0,24-10.8,24-24V196
	C400,182.8,389.2,172,376,172z"/>
<path style="fill:#4AB8A1;" d="M140,324c-4.336,0-8-3.664-8-8V196c0-4.336,3.664-8,8-8h236c4.336,0,8,3.664,8,8v120
	c0,4.336-3.664,8-8,8H140z"/>
<path style="fill:#43A691;" d="M140,316V196c0-4.336,3.664-8,8-8h-8c-4.336,0-8,3.664-8,8v120c0,4.336,3.664,8,8,8h8
	C143.664,324,140,320.336,140,316z"/>
<path style="fill:#F5F5F5;" d="M260,324c-4.336,0-8-3.664-8-8V196c0-4.336,3.664-8,8-8h116c4.336,0,8,3.664,8,8v120
	c0,4.336-3.664,8-8,8H260z"/>
<path style="fill:#E6E6E6;" d="M376,188h-16c4.336,0,8,3.664,8,8v120c0,4.336-3.664,8-8,8h16c4.336,0,8-3.664,8-8V196
	C384,191.664,380.336,188,376,188z"/>
<g>
	<path style="fill:#4AB8A1;" d="M274.876,256.024c0-5.608,1.564-9.976,4.688-13.096c3.124-3.124,7.476-4.692,13.056-4.692
		c5.724,0,10.124,1.54,13.224,4.604s4.64,7.372,4.64,12.904c0,4.02-0.676,7.308-2.028,9.884c-1.352,2.572-3.304,4.572-5.86,6
		c-2.56,1.424-5.744,2.144-9.556,2.144c-3.876,0-7.084-0.616-9.616-1.852c-2.54-1.24-4.596-3.192-6.18-5.864
		C275.664,263.384,274.876,260.04,274.876,256.024z M285.492,256.072c0,3.468,0.644,5.96,1.928,7.476
		c1.288,1.516,3.048,2.272,5.26,2.272c2.28,0,4.052-0.748,5.296-2.228c1.248-1.484,1.876-4.148,1.876-7.992
		c0-3.24-0.652-5.596-1.956-7.088s-3.076-2.24-5.304-2.24c-2.14,0-3.86,0.752-5.156,2.268S285.492,252.572,285.492,256.072z"/>
	<path style="fill:#4AB8A1;" d="M316.264,238.82h9.916l12.936,19.008V238.82h10.008v34.36h-10.008l-12.868-18.868v18.868h-9.984
		L316.264,238.82L316.264,238.82z"/>
</g>
<g>
</g>
<g>
</g>
<g>
</g>
<g>
</g>
<g>
</g>
<g>
</g>
<g>
</g>
<g>
</g>
<g>
</g>
<g>
</g>
<g>
</g>
<g>
</g>
<g>
</g>
<g>
</g>
<g>
</g>
</svg>
